<svg width="804" height="804" viewBox="0 0 804 804" fill="none" xmlns="http://www.w3.org/2000/svg">
<path d="M265.626 121.806C265.626 121.806 143.787 183.891 83.021 279.551C22.2547 375.211 27.0626 498.239 100.902 589.541C174.741 680.843 315.876 668.928 434.047 726.816C552.219 784.704 682.596 772.773 738.474 650.179C794.352 527.585 710.093 481.709 695.621 339.867C681.149 198.025 553.265 -9.64802 265.626 121.806Z" fill="#9F9FFA"/>
<path opacity="0.7" d="M265.626 121.806C265.626 121.806 143.787 183.891 83.021 279.551C22.2547 375.211 27.0626 498.239 100.902 589.541C174.741 680.843 315.876 668.928 434.047 726.816C552.219 784.704 682.596 772.773 738.474 650.179C794.352 527.585 710.093 481.709 695.621 339.867C681.149 198.025 553.265 -9.64802 265.626 121.806Z" fill="white" fill-opacity="0.55"/>
<path d="M751.258 439.788H744.584V438.646C744.58 435.53 743.34 432.543 741.137 430.339C738.933 428.136 735.946 426.896 732.83 426.892H728.311C725.192 426.892 722.201 428.13 719.994 430.334C717.787 432.538 716.545 435.527 716.541 438.646V439.788H709.884C708.994 439.786 708.113 439.96 707.291 440.299C706.468 440.638 705.721 441.137 705.092 441.766C704.463 442.395 703.965 443.142 703.625 443.965C703.286 444.787 703.112 445.668 703.114 446.558V477.399C703.114 479.195 703.827 480.916 705.097 482.186C706.366 483.456 708.088 484.169 709.884 484.169H751.258C753.052 484.165 754.771 483.45 756.04 482.181C757.308 480.913 758.023 479.193 758.027 477.399V446.558C758.027 444.762 757.314 443.04 756.045 441.771C754.775 440.501 753.053 439.788 751.258 439.788ZM719.757 438.646C719.761 436.38 720.664 434.209 722.268 432.608C723.872 431.007 726.045 430.108 728.311 430.108H732.83C735.094 430.108 737.266 431.007 738.868 432.609C740.469 434.21 741.368 436.382 741.368 438.646V439.788H719.757V438.646Z" fill="#263238"/>
<path d="M742.896 458.827H734.374V450.32H726.752V458.827H718.229V466.465H726.752V474.971H734.374V466.465H742.896V458.827Z" fill="white"/>
<path d="M738.072 255.994C736.747 255.994 735.434 255.732 734.21 255.225C732.986 254.717 731.874 253.973 730.937 253.035C730.001 252.097 729.258 250.984 728.753 249.759C728.247 248.533 727.988 247.221 727.99 245.895V218.688C727.988 217.363 728.247 216.05 728.753 214.825C729.258 213.6 730.001 212.486 730.937 211.548C731.874 210.61 732.986 209.866 734.21 209.359C735.434 208.851 736.747 208.59 738.072 208.59C739.397 208.59 740.71 208.851 741.934 209.359C743.158 209.866 744.27 210.61 745.207 211.548C746.143 212.486 746.886 213.6 747.391 214.825C747.897 216.05 748.156 217.363 748.154 218.688V245.847C748.163 247.176 747.908 248.494 747.405 249.725C746.902 250.956 746.161 252.075 745.224 253.018C744.287 253.961 743.173 254.709 741.945 255.22C740.718 255.731 739.401 255.994 738.072 255.994Z" fill="white" stroke="#263238" stroke-linecap="round" stroke-linejoin="round"/>
<path d="M738.072 255.994C736.747 255.994 735.434 255.732 734.21 255.225C732.986 254.717 731.874 253.973 730.937 253.035C730.001 252.097 729.258 250.984 728.753 249.759C728.247 248.533 727.988 247.221 727.99 245.895V232.308H748.154V245.895C748.156 247.221 747.897 248.533 747.391 249.759C746.886 250.984 746.143 252.097 745.207 253.035C744.27 253.973 743.158 254.717 741.934 255.225C740.71 255.732 739.397 255.994 738.072 255.994Z" fill="#263238" stroke="#263238" stroke-linecap="round" stroke-linejoin="round"/>
<path d="M687.356 215.922C686.527 214.887 685.91 213.698 685.542 212.423C685.174 211.149 685.062 209.815 685.211 208.497C685.361 207.179 685.769 205.903 686.413 204.744C687.057 203.584 687.924 202.563 688.964 201.74L710.141 184.727C712.238 183.06 714.911 182.293 717.573 182.595C720.235 182.896 722.668 184.241 724.34 186.335C726.006 188.43 726.772 191.1 726.471 193.759C726.169 196.418 724.824 198.849 722.732 200.518L701.538 217.514C700.503 218.342 699.315 218.958 698.041 219.326C696.768 219.694 695.434 219.807 694.117 219.659C692.799 219.511 691.524 219.105 690.364 218.464C689.204 217.823 688.182 216.959 687.356 215.922Z" fill="white" stroke="#263238" stroke-linecap="round" stroke-linejoin="round"/>
<path d="M687.356 215.922C686.527 214.887 685.91 213.698 685.542 212.424C685.174 211.149 685.062 209.815 685.211 208.497C685.361 207.179 685.769 205.903 686.413 204.744C687.057 203.584 687.924 202.563 688.964 201.74L699.56 193.233L712.183 208.976L701.586 217.466C700.553 218.304 699.363 218.929 698.087 219.305C696.811 219.682 695.472 219.801 694.15 219.658C692.827 219.514 691.545 219.11 690.379 218.469C689.213 217.828 688.186 216.962 687.356 215.922Z" fill="#263238" stroke="#263238" stroke-linecap="round" stroke-linejoin="round"/>
<path d="M586.518 141.89C585.261 141.89 584.035 142.284 583.013 143.016L559.584 124.829C560.732 122.704 561.271 120.303 561.14 117.891C561.01 115.479 560.215 113.15 558.844 111.161L573.155 92.862C574.367 93.329 575.695 93.396 576.947 93.0533C578.199 92.7105 579.309 91.9759 580.113 90.9571C580.917 89.9382 581.374 88.6886 581.417 87.3913C581.46 86.0939 581.086 84.8169 580.351 83.7473C579.616 82.6776 578.557 81.8715 577.331 81.4469C576.104 81.0223 574.773 81.0016 573.534 81.3877C572.295 81.7739 571.212 82.5466 570.443 83.5928C569.675 84.6391 569.262 85.9038 569.264 87.2018C569.257 88.4528 569.645 89.6741 570.374 90.6912L556.448 108.524C554.581 106.951 552.312 105.93 549.897 105.575C547.482 105.22 545.015 105.545 542.775 106.514C540.534 107.482 538.607 109.056 537.211 111.058C535.814 113.061 535.003 115.413 534.869 117.85H518.596C518.418 116.406 517.728 115.073 516.651 114.094C515.574 113.116 514.182 112.556 512.727 112.517C511.272 112.477 509.851 112.962 508.723 113.881C507.595 114.8 506.834 116.094 506.579 117.527C506.324 118.96 506.591 120.437 507.333 121.689C508.074 122.941 509.24 123.886 510.619 124.352C511.998 124.817 513.498 124.772 514.847 124.226C516.196 123.679 517.303 122.666 517.969 121.372H535.175C535.678 123.71 536.809 125.866 538.447 127.609C540.084 129.353 542.166 130.616 544.468 131.264C546.77 131.913 549.205 131.921 551.512 131.289C553.818 130.656 555.908 129.407 557.558 127.675L580.858 145.797C580.398 147.006 580.337 148.33 580.684 149.576C581.03 150.822 581.766 151.925 582.783 152.723C583.801 153.521 585.047 153.972 586.34 154.011C587.633 154.051 588.904 153.676 589.968 152.941C591.032 152.206 591.834 151.15 592.255 149.928C592.677 148.705 592.696 147.38 592.311 146.145C591.925 144.911 591.155 143.832 590.113 143.067C589.071 142.301 587.811 141.889 586.518 141.89Z" fill="#263238"/>
<path d="M110.598 256.187C108.651 256.182 106.784 255.407 105.407 254.03C104.03 252.652 103.254 250.786 103.25 248.838V187.734H117.947V248.838C117.947 250.787 117.173 252.656 115.794 254.034C114.416 255.412 112.547 256.187 110.598 256.187Z" fill="white" stroke="#263238" stroke-linecap="round" stroke-linejoin="round"/>
<path d="M110.598 256.187C108.651 256.182 106.784 255.407 105.407 254.03C104.03 252.652 103.254 250.786 103.25 248.838V211.259H117.947V248.838C117.947 250.787 117.173 252.656 115.794 254.034C114.416 255.412 112.547 256.187 110.598 256.187Z" fill="#263238" stroke="#263238" stroke-linecap="round" stroke-linejoin="round"/>
<path d="M120.053 184.164H101.159V189.519H120.053V184.164Z" fill="white" stroke="#263238" stroke-linecap="round" stroke-linejoin="round"/>
<path d="M88.3274 256.187C86.3798 256.182 84.5131 255.407 83.1359 254.03C81.7587 252.652 80.9831 250.786 80.9789 248.838V187.734H95.676V248.838C95.676 250.787 94.9018 252.656 93.5237 254.034C92.1455 255.412 90.2764 256.187 88.3274 256.187Z" fill="white" stroke="#263238" stroke-linecap="round" stroke-linejoin="round"/>
<path d="M88.3274 256.187C86.3798 256.182 84.5131 255.407 83.1359 254.03C81.7587 252.652 80.9831 250.786 80.9789 248.838V211.259H95.676V248.838C95.676 250.787 94.9018 252.656 93.5237 254.034C92.1455 255.412 90.2764 256.187 88.3274 256.187Z" fill="#263238" stroke="#263238" stroke-linecap="round" stroke-linejoin="round"/>
<path d="M97.7825 184.164H78.8885V189.519H97.7825V184.164Z" fill="white" stroke="#263238" stroke-linecap="round" stroke-linejoin="round"/>
<path d="M300.342 123.929L306.195 109.875C306.295 109.648 306.46 109.457 306.669 109.325C306.878 109.193 307.122 109.127 307.369 109.135C307.617 109.147 307.855 109.236 308.051 109.388C308.246 109.541 308.39 109.75 308.463 109.987L315.554 133.367L320.957 116.146C321.031 115.904 321.18 115.691 321.382 115.538C321.584 115.385 321.829 115.299 322.082 115.294C322.333 115.3 322.576 115.38 322.781 115.523C322.987 115.666 323.146 115.865 323.24 116.098L326.247 124.749H342.504C345.831 121.272 347.765 116.694 347.939 111.885C347.97 107.393 346.34 103.047 343.363 99.6837C340.385 96.3201 336.27 94.175 331.807 93.6606C327.345 93.1461 322.849 94.2985 319.185 96.8964C315.52 99.4944 312.944 103.355 311.952 107.736C310.93 103.385 308.345 99.5621 304.689 96.9931C301.032 94.4242 296.559 93.2888 292.119 93.803C287.68 94.3172 283.585 96.4451 280.612 99.7819C277.64 103.119 275.997 107.432 275.997 111.901C276.176 116.354 277.846 120.619 280.741 124.009L300.342 123.929Z" fill="#263238"/>
<path d="M325.395 127.161C325.145 127.162 324.9 127.085 324.696 126.941C324.491 126.797 324.337 126.593 324.253 126.357L322.163 120.343L316.68 137.822C316.601 138.068 316.447 138.283 316.239 138.436C316.031 138.589 315.78 138.672 315.522 138.674C315.263 138.673 315.011 138.588 314.805 138.431C314.599 138.274 314.45 138.055 314.38 137.806L307.128 113.895L302.304 125.601C302.212 125.82 302.058 126.006 301.861 126.138C301.663 126.27 301.432 126.34 301.194 126.341H282.686C286.658 130.779 291.611 134.702 295.309 138.352C300.905 143.884 306.388 149.608 312.097 154.947C319.413 147.727 326.778 140.475 334.03 133.255C336.04 131.245 338.227 129.251 340.253 127.161H325.395Z" fill="#263238"/>
<path d="M54.1391 486.57L62.0238 489.305L70.5553 464.709L62.6706 461.974L54.1391 486.57Z" fill="white" stroke="#263238" stroke-miterlimit="10"/>
<path d="M50.401 490.475L62.5698 494.696L64.1771 490.062L52.0083 485.841L50.401 490.475Z" fill="white" stroke="#263238" stroke-miterlimit="10"/>
<path d="M53.9762 468.304L73.4676 475.065L88.9234 430.507L69.432 423.746L53.9762 468.304Z" fill="white" stroke="#263238" stroke-miterlimit="10"/>
<path d="M63.4537 449.243L77.8405 454.233L86.372 429.637L71.9852 424.647L63.4537 449.243Z" fill="#263238" stroke="#263238" stroke-miterlimit="10"/>
<path d="M60.9089 467.072L68.7935 469.807L77.325 445.211L69.4404 442.476L60.9089 467.072Z" fill="#263238" stroke="#263238" stroke-miterlimit="10"/>
<path d="M52.6001 467.837L74.8716 475.562L76.8056 469.986L54.5341 462.261L52.6001 467.837Z" fill="white" stroke="#263238" stroke-miterlimit="10"/>
<path d="M74.1847 422.817L85.7914 426.843L88.3682 419.414L76.7615 415.388L74.1847 422.817Z" fill="white" stroke="#263238" stroke-miterlimit="10"/>
<path d="M67.5688 424.667L89.8403 432.393L91.7742 426.817L69.5027 419.092L67.5688 424.667Z" fill="white" stroke="#263238" stroke-miterlimit="10"/>
<path d="M82.6834 416.392L92.0098 389.474" stroke="#263238" stroke-miterlimit="10"/>
<path d="M601.231 750.936C647.704 750.936 685.378 742.441 685.378 731.962C685.378 721.482 647.704 712.987 601.231 712.987C554.758 712.987 517.085 721.482 517.085 731.962C517.085 742.441 554.758 750.936 601.231 750.936Z" fill="#263238" stroke="#263238" stroke-linecap="round" stroke-linejoin="round"/>
<path d="M536.348 303.076C536.348 303.076 524.964 310.039 525.092 313.094C525.221 316.149 520.847 371.866 520.349 378.829C519.85 385.791 513.225 400.167 512.711 406.695C512.196 413.224 513.836 419.769 515.75 422.775C517.663 425.782 524.69 435.398 524.69 435.398L543.584 406.213C544.048 399.84 544.144 393.446 543.874 387.062C543.584 373.153 536.348 303.076 536.348 303.076Z" fill="white" stroke="#263238" stroke-linecap="round" stroke-linejoin="round"/>
<path d="M609.046 165.013C609.046 165.013 588.946 163.727 577.497 177.668C566.048 191.609 568.508 212.931 568.428 219.476C568.348 226.021 548.907 245.204 551.062 253.019C553.216 260.834 558.941 261.718 557.108 268.247C555.275 274.775 543.311 278.699 545.048 286.98C546.784 295.261 553.088 306.999 553.088 306.999L668.864 307.787C668.864 307.787 672.996 295.599 668.59 286.449C664.184 277.3 657.929 274.277 658.942 269.919C659.955 265.561 665.551 255.109 663.396 247.278C661.242 239.447 653.748 237.276 652.961 223.335C652.173 209.394 650.114 186.351 639.051 175.095C627.988 163.839 609.046 165.013 609.046 165.013Z" fill="#263238" stroke="#263238" stroke-linecap="round" stroke-linejoin="round"/>
<path d="M573.445 702.262C569.889 709.113 565.574 715.543 560.581 721.429C553.184 729.71 546.012 734.068 546.254 738.426C546.495 742.784 562.639 743.636 571.178 740.581C579.716 737.525 585.923 731.431 587.644 730.933C589.364 730.434 594.172 730.933 594.285 724.822C594.397 718.712 593.465 701.313 593.465 701.313L573.445 702.262Z" fill="white" stroke="#263238" stroke-linecap="round" stroke-linejoin="round"/>
<path d="M571.146 740.58C579.7 737.525 585.891 731.431 587.611 730.932C589.332 730.434 594.14 730.933 594.252 724.822C594.252 721.606 594.076 715.174 593.85 709.916C592.585 712.289 590.713 714.283 588.424 715.696C586.136 717.108 583.514 717.888 580.826 717.956C580.826 717.956 580.665 714.901 576.002 709.691C572.995 706.282 569.956 708.967 568.187 711.299L566.756 713.454L566.643 713.663C564.787 716.4 562.757 719.016 560.565 721.494C553.168 729.775 545.996 734.132 546.238 738.49C546.479 742.848 562.607 743.636 571.146 740.58Z" fill="white" stroke="#263238" stroke-linecap="round" stroke-linejoin="round"/>
<path d="M633.021 702.23C637.342 709.105 642.353 715.522 647.976 721.381C656.257 729.646 663.895 733.988 664.056 738.345C664.217 742.703 648.233 743.571 639.357 740.532C630.481 737.493 623.631 731.399 621.878 730.965C620.125 730.53 615.333 730.965 614.578 724.886C613.822 718.808 612.873 701.377 612.873 701.377L633.021 702.23Z" fill="white" stroke="#263238" stroke-linecap="round" stroke-linejoin="round"/>
<path d="M639.421 740.532C630.561 737.493 623.695 731.399 621.942 730.965C620.19 730.531 615.398 730.965 614.642 724.886C614.24 721.67 613.79 715.238 613.452 709.964C614.939 712.322 616.982 714.279 619.401 715.664C621.821 717.049 624.543 717.819 627.329 717.908C627.329 717.908 627.168 714.853 631.236 709.627C633.89 706.234 637.218 708.903 639.276 711.235C639.807 711.942 640.354 712.65 640.884 713.389L641.029 713.598C643.19 716.332 645.499 718.946 647.944 721.429C656.225 729.694 663.863 734.036 664.024 738.394C664.184 742.751 648.297 743.571 639.421 740.532Z" fill="white" stroke="#263238" stroke-linecap="round" stroke-linejoin="round"/>
<path d="M538.471 472.43C538.471 472.43 541.156 562.977 544.726 580.826C548.296 598.675 564.231 700.976 564.231 700.976C569.102 703.036 574.347 704.066 579.636 703.999H597.05L598.658 627.812L599.253 517.229L607.985 704.417C607.985 704.417 631.976 705.269 634.565 704.835C637.154 704.401 639.309 703.966 639.309 703.966L654.729 585.537L663.557 506.745L664.04 475.405C664.04 475.405 590.329 472.849 568.91 471.112C547.492 469.375 538.68 468.941 538.68 468.941L538.471 472.43Z" fill="#D7D0FF" stroke="#263238" stroke-linecap="round" stroke-linejoin="round"/>
<path d="M638.006 632.298C637.813 633.809 637.62 635.208 637.395 636.495" stroke="#263238" stroke-linecap="round" stroke-linejoin="round"/>
<path d="M639.984 523.292C639.984 523.292 641.479 587.804 638.858 622.827" stroke="#263238" stroke-linecap="round" stroke-linejoin="round"/>
<path d="M560.951 518.114C560.951 518.114 562.8 560.79 564.633 570.358" stroke="#263238" stroke-linecap="round" stroke-linejoin="round"/>
<path d="M629.661 490.922V523.5C633.835 524.624 638.103 525.362 642.412 525.703C649.021 526.138 661.354 525.703 661.354 525.703L662.239 513.37L629.661 490.922Z" fill="#263238" stroke="#263238" stroke-linecap="round" stroke-linejoin="round"/>
<path d="M539.838 516.007C539.838 516.007 556.577 521.297 563.62 521.732C570.663 522.166 577.256 523.05 577.256 523.05L576.388 514.254L538.953 510.733L539.838 516.007Z" fill="#263238" stroke="#263238" stroke-linecap="round" stroke-linejoin="round"/>
<path d="M590.651 268.649L577.513 283.458L541.076 310.038L548.843 471.144C548.843 471.144 577.883 478.959 602.807 481.13C627.731 483.3 659.778 477.592 659.778 477.592L655.067 308.752C655.067 308.752 640.884 287.848 633.616 282.204C626.348 276.56 623.02 271.334 613.388 270.466C603.756 269.597 590.651 268.649 590.651 268.649Z" fill="#D7D0FF" stroke="#263238" stroke-linecap="round" stroke-linejoin="round"/>
<path d="M575.407 276.576L536.348 303.156L542.475 401.1L540.401 410.941L523.983 429.851L530.978 463.072L527.858 509.945C527.858 509.945 543.375 515.171 553.892 516.457C561.722 517.297 569.59 517.731 577.465 517.76L578.816 453.762C578.816 453.762 584.01 347.521 584.621 342.81C585.232 338.098 590.651 268.842 590.651 268.842L575.407 276.576Z" fill="white" stroke="#263238" stroke-linecap="round" stroke-linejoin="round"/>
<path d="M576.034 280.58L557.124 328L577.529 336.474L558.265 339.979L575.326 406.824" stroke="#263238" stroke-linecap="round" stroke-linejoin="round"/>
<path d="M587.37 256.026C587.37 256.026 594.156 301.291 599.495 311.743C604.833 322.195 606.345 325.668 606.345 325.668C606.345 325.668 617.954 290.389 620.286 285.163C622.618 279.937 625.11 261.22 625.11 261.22C625.11 261.22 601.971 268.632 587.37 256.026Z" fill="white" stroke="#263238" stroke-linecap="round" stroke-linejoin="round"/>
<path d="M587.37 256.026C587.37 256.026 587.981 260.142 588.978 266.172C592.371 268.761 601.36 275.161 608.001 275.499C613.066 275.756 619.498 272.476 623.775 269.855C624.547 265.111 625.078 261.22 625.078 261.22C625.078 261.22 601.971 268.632 587.37 256.026Z" fill="#263238" stroke="#263238" stroke-linecap="round" stroke-linejoin="round"/>
<path d="M578.156 224.734C578.156 224.734 573.525 218.141 570.406 224.734C567.286 231.327 575.23 241.087 577.449 242.422C583.752 246.169 582.08 239.206 582.08 239.206L578.156 224.734Z" fill="white" stroke="#263238" stroke-linecap="round" stroke-linejoin="round"/>
<path d="M635.675 227.58C635.675 227.58 639.582 220.762 643.409 227.194C647.236 233.626 640.338 243.741 638.28 245.172C632.394 249.24 633.327 242.261 633.327 242.261L635.675 227.58Z" fill="white" stroke="#263238" stroke-linecap="round" stroke-linejoin="round"/>
<path d="M577.063 218.913C577.063 218.913 593.85 214.99 602.309 209.989C607.489 206.86 612.007 202.746 615.607 197.88C615.607 197.88 622.875 211.613 629.275 217.176C635.675 222.74 637.009 223.062 637.009 223.062C637.009 223.062 633.938 247.101 630.465 255.463C626.991 263.825 615.655 271.961 605.074 269.613C599.06 268.295 588.641 263.953 585.618 256.637C582.594 249.32 577.063 218.913 577.063 218.913Z" fill="white" stroke="#263238" stroke-linecap="round" stroke-linejoin="round"/>
<path d="M619.9 237.389C614.69 237.518 597.243 237.55 588.239 232.115C584.629 230.014 581.25 227.54 578.156 224.734C578.478 226.342 578.864 228.352 579.282 230.443L581.244 231.874L586.164 250.462L583.865 250.961C584.35 252.861 584.935 254.734 585.618 256.573C588.641 263.889 599.06 268.231 605.074 269.549C615.639 271.881 626.943 263.792 630.449 255.447C629.621 253.826 629.377 251.969 629.757 250.189C630.77 244.931 632.024 235.717 632.024 235.717L635.61 232.501C635.803 231.327 635.964 230.201 636.125 229.172C631.783 232.179 623.647 237.293 619.9 237.389Z" fill="#D7D0FF" stroke="#263238" stroke-linecap="round" stroke-linejoin="round"/>
<path d="M600.749 229.622C600.749 229.622 595.137 222.805 587.772 223.432" stroke="#263238" stroke-linecap="round" stroke-linejoin="round"/>
<path d="M615.205 230.973C616.995 229.091 619.22 227.675 621.684 226.851C624.148 226.027 626.776 225.819 629.339 226.246" stroke="#263238" stroke-linecap="round" stroke-linejoin="round"/>
<path d="M584.54 220.023C584.54 220.023 592.58 216.807 599.704 218.318" stroke="#263238" stroke-linecap="round" stroke-linejoin="round"/>
<path d="M615.864 220.071C617.982 218.989 620.382 218.584 622.738 218.912C625.094 219.24 627.292 220.285 629.034 221.904" stroke="#263238" stroke-linecap="round" stroke-linejoin="round"/>
<path d="M595.346 227.387C595.382 227.634 595.37 227.886 595.308 228.129C595.247 228.371 595.139 228.598 594.989 228.799C594.84 228.999 594.653 229.168 594.438 229.295C594.223 229.423 593.985 229.507 593.738 229.542C593.235 229.485 592.772 229.24 592.444 228.854C592.115 228.469 591.946 227.973 591.969 227.468C591.931 227.22 591.942 226.968 592.002 226.725C592.062 226.482 592.17 226.253 592.32 226.052C592.47 225.852 592.658 225.683 592.874 225.556C593.09 225.429 593.329 225.346 593.577 225.313C594.079 225.373 594.539 225.62 594.867 226.004C595.195 226.389 595.366 226.883 595.346 227.387Z" fill="#263238"/>
<path d="M624.467 229.478C624.51 229.726 624.502 229.98 624.444 230.225C624.385 230.47 624.278 230.7 624.127 230.902C623.977 231.103 623.786 231.272 623.568 231.398C623.35 231.524 623.109 231.603 622.859 231.632C622.357 231.58 621.895 231.337 621.566 230.955C621.237 230.572 621.067 230.078 621.09 229.574C621.047 229.326 621.055 229.072 621.113 228.827C621.171 228.582 621.279 228.352 621.43 228.15C621.58 227.949 621.77 227.78 621.988 227.654C622.207 227.528 622.448 227.449 622.698 227.419C623.2 227.472 623.662 227.715 623.991 228.097C624.32 228.48 624.49 228.974 624.467 229.478Z" fill="#263238"/>
<path d="M667.77 293.846C667.77 293.846 677.145 298.188 680.634 305.102C684.124 312.016 712.022 386.933 711.894 392.593C711.765 398.253 702.535 404.782 693.884 405.666C685.233 406.551 672.626 390.873 670.745 388.268C668.864 385.663 668.526 355.175 668.526 355.175L667.77 293.846Z" fill="white" stroke="#263238" stroke-linecap="round" stroke-linejoin="round"/>
<path d="M623.582 273.842L628.149 423.612L629.757 518.082C638.513 520.235 647.483 521.394 656.498 521.539C664.018 521.696 671.494 520.363 678.496 517.615C678.496 517.615 675.762 458.843 675.28 449.259C674.797 439.675 671.613 421.392 671.613 421.392L667.818 293.846C667.818 293.846 632.491 277.316 623.582 273.842Z" fill="white" stroke="#263238" stroke-linecap="round" stroke-linejoin="round"/>
<path d="M633.616 282.108L649.809 334.93L635.047 338.934L649.407 345.897L631.494 402.804" fill="white"/>
<path d="M633.616 282.108L649.809 334.93L635.047 338.934L649.407 345.897L631.494 402.804" stroke="#263238" stroke-linecap="round" stroke-linejoin="round"/>
<path d="M644.904 330.428L624.821 426.651C624.821 426.651 638.553 430.992 648.587 431.475C658.621 431.957 679.525 431.893 679.525 431.893L700.429 342.199C700.429 342.199 659.28 338.259 644.904 330.428Z" fill="#263238" stroke="#263238" stroke-linecap="round" stroke-linejoin="round"/>
<path d="M651.899 420.106L652.559 390.036L668.494 393.397C668.494 393.397 657.961 416.601 651.899 420.106Z" fill="white" stroke="#263238" stroke-linecap="round" stroke-linejoin="round"/>
<path d="M664.104 379.166C664.104 379.166 659.859 373.088 658.492 371.77C657.125 370.451 650.372 366.56 649.069 366.56C647.767 366.56 640.772 366.125 639.421 366.125C638.07 366.125 636.543 369.181 637.926 370.483C639.309 371.786 644.117 372.22 644.117 372.22L647.413 377.044L632.539 375.741C632.539 375.741 630.063 378.362 630.625 380.565C631.046 382.058 631.584 383.515 632.233 384.923C632.177 388.12 632.344 391.317 632.732 394.491C633.311 397.112 635.948 397.98 639.566 400.151C643.184 402.322 655.292 401.019 655.292 401.019H660.888L664.104 379.166Z" fill="white" stroke="#263238" stroke-linecap="round" stroke-linejoin="round"/>
<path d="M700.364 382.189L661.772 376.996C661.772 376.996 658.765 401.823 655.726 410.088C652.687 418.353 651.899 420.106 651.899 420.106C651.899 420.106 692.34 419.206 701.876 418.337C711.411 417.469 716.766 411.793 716.348 403.962C715.93 396.131 711.154 388.284 711.154 388.284" fill="white"/>
<path d="M700.364 382.189L661.772 376.996C661.772 376.996 658.765 401.823 655.726 410.088C652.687 418.353 651.899 420.106 651.899 420.106C651.899 420.106 692.34 419.206 701.876 418.337C711.411 417.469 716.766 411.793 716.348 403.962C715.93 396.131 711.154 388.284 711.154 388.284" stroke="#263238" stroke-linecap="round" stroke-linejoin="round"/>
<path d="M539.436 409.3C539.436 409.3 548.441 414.944 550.692 416.697C552.943 418.45 553.136 429.754 554.567 431.925C555.998 434.096 554.31 435.414 551.705 435.414C549.1 435.414 545.16 427.149 545.16 427.149L544.999 424.094L526.604 430.204L521.78 421.939C521.78 421.939 527.247 409.3 539.436 409.3Z" fill="white" stroke="#263238" stroke-linecap="round" stroke-linejoin="round"/>
<path d="M405.425 750.936C451.898 750.936 489.572 742.441 489.572 731.962C489.572 721.482 451.898 712.987 405.425 712.987C358.952 712.987 321.278 721.482 321.278 731.962C321.278 742.441 358.952 750.936 405.425 750.936Z" fill="#263238" stroke="#263238" stroke-linecap="round" stroke-linejoin="round"/>
<path d="M471.144 281.062C471.144 281.062 482.175 336.426 484.137 346.669C486.098 356.912 489.7 381.257 493.785 391.934C497.869 402.611 496.534 416.279 494.492 420.122C492.444 423.462 490.091 426.605 487.465 429.513L473.765 411.648C473.765 411.648 465.612 324.108 465.307 311.711C465.001 299.313 471.144 281.062 471.144 281.062Z" fill="white" stroke="#263238" stroke-linecap="round" stroke-linejoin="round"/>
<path d="M478.412 409.461C478.412 409.461 487.095 414.88 488.623 417.18C490.151 419.479 491.244 422.406 490.054 424.898C488.864 427.39 482.384 434.916 480.744 436.379C479.104 437.842 477.721 432.005 477.528 426.988C477.335 421.971 478.412 409.461 478.412 409.461Z" fill="white" stroke="#263238" stroke-linecap="round" stroke-linejoin="round"/>
<path d="M431.716 713.052C431.716 713.052 458.939 726.285 460.66 728.858C462.38 731.431 456.174 734.856 439.949 734.856C423.724 734.856 423.242 732.717 416.794 731.013C410.346 729.308 397.498 730.579 395.761 726.736C394.024 722.893 397.047 709.659 397.047 709.659L431.716 713.052Z" fill="white" stroke="#263238" stroke-linecap="round" stroke-linejoin="round"/>
<path d="M395.568 719.886C395.568 719.886 418.08 733.554 416.102 738.249C414.124 742.944 397.851 742.944 389.281 741.658C380.71 740.372 362.491 728.794 361.527 724.581C360.562 720.368 362.974 713.904 376.176 712.634C389.377 711.363 395.568 719.886 395.568 719.886Z" fill="white" stroke="#263238" stroke-linecap="round" stroke-linejoin="round"/>
<path d="M463.908 496.55C463.908 496.55 451.044 595.619 448.809 610.139C446.574 624.66 439.482 647.718 435.655 665.23C433.487 675.528 431.876 685.936 430.831 696.409C430.441 699.387 430.511 702.408 431.04 705.365C431.587 709.642 431.668 713.051 431.668 713.051C425.941 714.488 420.114 715.488 414.237 716.042C406.985 716.476 397.16 716.477 397.16 716.477L393.944 688.722C393.944 688.722 396.34 647.718 397.755 635.771C399.17 623.824 400.681 529.868 400.617 527.295C400.553 524.723 399.99 502.098 399.99 502.098L443.808 497.403C443.808 497.403 449.79 480.326 458.778 481.178C467.767 482.03 463.908 496.55 463.908 496.55Z" fill="white" stroke="#263238" stroke-linecap="round" stroke-linejoin="round"/>
<path d="M458.843 481.178C449.854 480.326 443.872 497.403 443.872 497.403L400.006 502.098C400.006 502.098 400.151 508.112 400.296 514.287C404.975 514.705 409.3 514.946 412.999 514.946C427.053 514.923 441.096 514.134 455.064 512.582L456.945 492.9L459.888 512.952L461.914 512.293C463.168 502.741 463.972 496.518 463.972 496.518C463.972 496.518 467.832 482.03 458.843 481.178Z" fill="#263238" stroke="#263238" stroke-linecap="round" stroke-linejoin="round"/>
<path d="M354.242 499.541C354.242 499.541 354.242 500.152 354.339 501.262C354.934 512.936 358.471 580.584 359.549 593.063C360.755 606.731 354.725 621.669 355.03 634.05C355.336 646.432 358.246 713.486 358.246 713.486L361.462 724.581C361.462 724.581 369.02 719.467 376.272 719.467C383.524 719.467 395.568 719.885 395.568 719.885C395.568 719.885 396.195 710.913 396.131 707.938C396.066 704.963 395.793 694.27 395.793 694.27C395.793 694.27 408.062 638.328 408.802 633.632C409.542 628.937 419.061 547.797 418.997 545.192C418.932 542.587 421.007 506.327 421.007 506.327L354.242 499.541Z" fill="white" stroke="#263238" stroke-linecap="round" stroke-linejoin="round"/>
<path d="M420.556 514.865C420.83 509.913 421.023 506.375 421.023 506.375L354.242 499.541C354.242 499.541 354.242 500.152 354.339 501.262C354.339 502.677 354.516 504.912 354.677 507.694C370.29 510.492 397.385 514.898 412.999 514.898C415.572 514.946 418.08 514.914 420.556 514.865Z" fill="#263238" stroke="#263238" stroke-linecap="round" stroke-linejoin="round"/>
<path d="M403.447 237.341C403.447 237.341 396.388 238.531 393.703 241.682C391.012 244.748 388.591 248.041 386.467 251.523C386.097 252.713 344.578 277.911 344.578 277.911L347.569 398.06C347.569 398.06 348.807 416.568 346.604 422.872C342.883 435.265 341.077 448.155 341.25 461.094C341.636 476.45 342.633 501.294 342.633 501.294C342.633 501.294 390.149 510.749 412.999 510.749C427.054 510.716 441.096 509.916 455.064 508.353L456.945 488.655L459.808 508.755L469.568 505.539L477.608 446.043C477.608 446.043 483.204 433.436 483.14 430.671C483.075 427.905 484.555 424.367 482.931 422.004C481.307 419.64 478.412 414.912 478.412 414.912C478.412 414.912 471.144 284.616 471.144 281.062C471.144 277.509 449.645 256.653 448.053 255.865C446.461 255.077 436.652 240.492 423.933 236.569C411.214 232.645 403.447 237.341 403.447 237.341Z" fill="white" stroke="#263238" stroke-linecap="round" stroke-linejoin="round"/>
<path d="M390.503 255.463L385.743 298.734L405.296 307.819L400.408 322.5L449.307 408.432" stroke="#263238" stroke-linecap="round" stroke-linejoin="round"/>
<path d="M445.127 260.319L459.792 294.553L453.504 302.931L463.988 317.596L459.792 411.921" stroke="#263238" stroke-linecap="round" stroke-linejoin="round"/>
<path d="M401.63 243.258C401.987 251.7 403.518 260.051 406.181 268.07C410.41 279.889 438.437 361.43 438.437 361.43L456.559 425.236C456.559 425.236 454.164 360.24 454.099 357.491C454.035 354.741 440.367 264.516 440.367 264.516C440.367 264.516 438.035 249.948 434.353 244.432C430.671 238.917 405.988 228.674 401.63 243.258Z" fill="#D7D0FF" stroke="#263238" stroke-linecap="round" stroke-linejoin="round"/>
<path d="M399.894 236.955C399.894 236.955 388.493 238.129 390.503 255.463C392.513 272.797 395.166 284.616 395.166 284.616" stroke="#263238" stroke-width="2" stroke-linecap="round" stroke-linejoin="round"/>
<path d="M393.767 307.466C393.767 307.466 398.591 327.55 401.887 333.065C405.184 338.58 415.153 344.096 422.245 344.096" stroke="#263238" stroke-linecap="round" stroke-linejoin="round"/>
<path d="M409.011 302.738C409.011 302.738 414.317 325.974 415.202 330.315C416.086 334.657 413.16 342.906 408.239 351.219" stroke="#263238" stroke-linecap="round" stroke-linejoin="round"/>
<path d="M406.824 353.969C406.318 353.691 405.942 353.223 405.78 352.669C405.617 352.114 405.68 351.518 405.956 351.01L406.518 349.981C406.657 349.735 406.843 349.519 407.066 349.346C407.289 349.173 407.544 349.046 407.816 348.973C408.089 348.899 408.373 348.881 408.653 348.919C408.933 348.957 409.202 349.05 409.445 349.193C409.951 349.472 410.327 349.938 410.492 350.492C410.658 351.045 410.599 351.641 410.329 352.152L409.767 353.165C409.628 353.413 409.441 353.631 409.218 353.805C408.994 353.98 408.738 354.109 408.464 354.184C408.19 354.259 407.904 354.278 407.622 354.241C407.341 354.205 407.069 354.112 406.824 353.969Z" fill="#263238"/>
<path d="M424.882 344.53C424.882 344.814 424.825 345.094 424.714 345.355C424.603 345.616 424.441 345.852 424.237 346.049C424.032 346.245 423.791 346.399 423.526 346.5C423.261 346.601 422.978 346.647 422.695 346.637H421.521C420.942 346.624 420.392 346.384 419.989 345.969C419.586 345.553 419.362 344.996 419.366 344.417C419.364 344.135 419.419 343.854 419.528 343.594C419.637 343.333 419.798 343.097 420.001 342.9C420.204 342.703 420.445 342.549 420.709 342.448C420.973 342.347 421.255 342.3 421.537 342.311H422.711C423.29 342.328 423.84 342.568 424.244 342.982C424.649 343.396 424.878 343.951 424.882 344.53Z" fill="#263238"/>
<path d="M393.799 309.042L391.098 291.916C390.796 290.151 391.179 288.336 392.167 286.843C393.156 285.349 394.677 284.288 396.42 283.876C398.299 283.449 400.27 283.767 401.919 284.762C403.568 285.758 404.767 287.354 405.264 289.215L409.879 306.26" stroke="#263238" stroke-width="2" stroke-linecap="round" stroke-linejoin="round"/>
<path d="M457.362 320.615C461.232 320.228 464.007 316.296 463.56 311.834C463.113 307.371 459.613 304.068 455.743 304.456C451.872 304.843 449.097 308.775 449.544 313.237C449.991 317.7 453.491 321.003 457.362 320.615Z" fill="white" stroke="#263238" stroke-linecap="round" stroke-linejoin="round"/>
<path d="M437.585 244.175C437.585 244.175 453.07 265.963 458.007 310.376" stroke="#263238" stroke-width="2" stroke-linecap="round" stroke-linejoin="round"/>
<path d="M458.418 315.518C460.531 315.322 462.059 313.162 461.829 310.695C461.6 308.228 459.701 306.387 457.588 306.584C455.474 306.78 453.947 308.939 454.176 311.407C454.405 313.874 456.305 315.714 458.418 315.518Z" fill="white" stroke="#263238" stroke-linecap="round" stroke-linejoin="round"/>
<path d="M481.049 412.854C480.099 415.797 479.321 418.793 478.718 421.827C478.718 423.113 478.412 426.956 475.405 426.088C472.398 425.219 473.299 409.863 473.685 408.159C474.071 406.454 481.387 411.97 481.387 411.97" fill="white"/>
<path d="M481.049 412.854C480.099 415.797 479.321 418.793 478.718 421.827C478.718 423.113 478.412 426.956 475.405 426.088C472.398 425.219 473.299 409.863 473.685 408.159C474.071 406.454 481.387 411.97 481.387 411.97" stroke="#263238" stroke-linecap="round" stroke-linejoin="round"/>
<path d="M383.444 399.25C386.118 400.723 389.107 401.533 392.159 401.614C396.887 401.614 405.522 400.006 408.689 400.826C411.857 401.646 419.945 411.841 419.945 411.841C419.945 411.841 422.357 414.205 421.216 415.395C420.074 416.584 417.742 418.611 416.134 417.356C414.526 416.102 406.486 409.477 406.486 409.477L386.209 417.758L377.88 413.417L383.444 399.25Z" fill="white" stroke="#263238" stroke-linecap="round" stroke-linejoin="round"/>
<path d="M352.393 275.161C352.393 275.161 339.031 276.769 336.763 280.274C334.496 283.78 297.882 364.18 297.962 367.733C298.043 371.287 371.175 428.837 371.175 428.837L386.965 398.784L347.457 362.154L364.598 322.372" fill="white"/>
<path d="M352.393 275.161C352.393 275.161 339.031 276.769 336.763 280.274C334.496 283.78 297.882 364.18 297.962 367.733C298.043 371.287 371.175 428.837 371.175 428.837L386.965 398.784L347.457 362.154L364.598 322.372" stroke="#263238" stroke-linecap="round" stroke-linejoin="round"/>
<path d="M377.044 443.358L415.668 444.146L415.475 420.122" stroke="#263238" stroke-linecap="round" stroke-linejoin="round"/>
<path d="M386.258 417.758L376.047 421.569" stroke="#263238" stroke-linecap="round" stroke-linejoin="round"/>
<path d="M397.9 220.007C397.9 220.007 402.289 254.289 405.184 259.403C408.078 264.516 428.661 285.002 428.661 285.002C428.661 285.002 435.093 261.38 435.816 255.865C436.54 250.349 437.103 228.288 437.103 228.288L397.819 217.257L397.9 220.007Z" fill="white" stroke="#263238" stroke-linecap="round" stroke-linejoin="round"/>
<path d="M397.9 220.007C397.9 220.007 398.414 224.027 399.202 229.51C402.281 232.377 405.799 234.733 409.622 236.489C414.687 238.724 428.194 239.978 436.733 238.981C436.958 233.208 437.103 228.288 437.103 228.288L397.819 217.257L397.9 220.007Z" fill="#263238" stroke="#263238" stroke-linecap="round" stroke-linejoin="round"/>
<path d="M386.515 190.082C386.515 190.082 381.257 184.566 378.652 190.854C376.047 197.141 381.868 206.612 384.971 207.014C386.813 207.254 388.684 207.117 390.471 206.612C390.471 206.612 392.674 215.681 394.7 218.431C398.687 223.473 403.797 227.514 409.622 230.233C416.794 233.449 440.801 234.591 443.84 230.233C446.879 225.876 446.702 202.656 446.654 200.694C446.606 198.733 446.268 170.657 446.268 170.657C446.268 170.657 448.423 160.913 445.496 154.207C442.57 147.502 413.192 138.127 405.811 142.002C398.43 145.878 389.924 152.631 389.345 161.298C388.766 169.966 389.12 184.148 389.12 184.148L386.515 190.082Z" fill="white" stroke="#263238" stroke-linecap="round" stroke-linejoin="round"/>
<path d="M429.931 177.861C429.931 177.861 434.835 200.373 433.71 203.074C432.584 205.776 429.063 205.824 424.657 203.46C420.251 201.096 422.55 197.945 422.55 197.945" stroke="#263238" stroke-linecap="round" stroke-linejoin="round"/>
<path d="M412.854 203.862C412.854 203.862 414.977 209.764 418.916 210.166C422.856 210.568 432.745 211.339 432.745 211.339" stroke="#263238" stroke-linecap="round" stroke-linejoin="round"/>
<path d="M398.784 178.649L399.411 188.104C399.411 188.104 403.013 190.082 411.278 190.082C419.543 190.082 422.261 188.104 422.261 188.104L422.036 178.649C422.036 178.649 410.04 171.557 398.784 178.649Z" stroke="#263238" stroke-linecap="round" stroke-linejoin="round"/>
<path d="M429.963 178.649L432.954 188.506C432.954 188.506 434.176 190.114 442.457 190.114C450.738 190.114 453.456 188.136 453.456 188.136L453.215 178.681C453.215 178.681 441.203 171.557 429.963 178.649Z" stroke="#263238" stroke-linecap="round" stroke-linejoin="round"/>
<path d="M422.084 178.649H429.963" stroke="#263238" stroke-linecap="round" stroke-linejoin="round"/>
<path d="M398.832 178.649L383.299 187.718" stroke="#263238" stroke-linecap="round" stroke-linejoin="round"/>
<path d="M402.659 173.921C402.659 173.921 406.872 169.194 416.424 173.133" stroke="#263238" stroke-linecap="round" stroke-linejoin="round"/>
<path d="M431.41 173.921C432.829 172.783 434.54 172.069 436.346 171.861C438.153 171.654 439.982 171.961 441.621 172.747" stroke="#263238" stroke-linecap="round" stroke-linejoin="round"/>
<path d="M412.725 182.99C412.725 184.727 412.098 186.206 411.23 186.206C410.362 186.206 409.622 184.791 409.622 182.99C409.622 181.189 410.249 179.774 411.133 179.774C412.018 179.774 412.693 181.238 412.725 182.99Z" fill="#263238"/>
<path d="M437.939 182.588C437.939 184.325 437.312 185.804 436.443 185.804C435.575 185.804 434.835 184.389 434.835 182.588C434.835 180.787 435.462 179.372 436.331 179.372C437.199 179.372 437.891 180.852 437.939 182.588Z" fill="#263238"/>
<path d="M410.957 146.151C410.957 146.151 414.751 154.529 410.04 157.584C408.586 158.425 406.936 158.868 405.256 158.868C403.576 158.868 401.926 158.425 400.472 157.584C401.725 159.314 402.425 161.383 402.479 163.518C402.534 165.654 401.941 167.756 400.778 169.548C398.468 173.396 395.774 177 392.738 180.305C392.738 180.305 393.59 190.484 391.821 191.674C390.053 192.863 385.229 191.079 385.148 188.088C385.068 185.097 383.138 179.115 383.058 176.124C382.977 173.133 381.594 165.351 381.594 165.351C381.594 165.351 369.502 159.964 375.918 153.387C382.334 146.81 395.954 141.424 395.954 141.424C395.954 141.424 396.259 129.46 404.541 125.874C412.822 122.288 430.638 116.902 430.783 122.883C431.01 125.962 430.457 129.048 429.175 131.856C429.175 131.856 444.114 131.261 454.533 141.504C464.953 151.747 464.599 161.25 459.213 161.25C453.826 161.25 452.073 162.44 452.073 162.44C452.073 162.44 462.38 168.422 457.074 171.413C451.768 174.404 446.3 170.818 446.3 170.818C446.3 170.818 448.584 166.637 441.862 161.17C435.141 155.703 410.957 146.151 410.957 146.151Z" fill="#263238" stroke="#263238" stroke-linecap="round" stroke-linejoin="round"/>
<path d="M206.917 750.936C253.39 750.936 291.064 742.441 291.064 731.962C291.064 721.482 253.39 712.987 206.917 712.987C160.445 712.987 122.771 721.482 122.771 731.962C122.771 742.441 160.445 750.936 206.917 750.936Z" fill="#263238" stroke="#263238" stroke-linecap="round" stroke-linejoin="round"/>
<path d="M262.329 339.497V354.87L284.68 365.112C284.68 365.112 287.012 354.869 285.147 336.699L262.329 339.497Z" fill="#999999" stroke="#263238" stroke-linecap="round" stroke-linejoin="round"/>
<path d="M151.393 708.388C146.277 712.78 141.444 717.49 136.921 722.491C130.489 729.743 129.235 736.963 135.217 740.42C141.198 743.877 150.589 742.976 160.832 736.577C171.075 730.177 170.657 727.604 176.639 725.481C182.621 723.359 186.464 719.049 186.464 712.231C186.464 705.414 164.675 704.545 159.98 704.191C155.285 703.838 151.393 708.388 151.393 708.388Z" fill="white" stroke="#263238" stroke-linecap="round" stroke-linejoin="round"/>
<path d="M186.415 712.231C186.415 712.231 176.767 716.509 172.088 720.4C167.409 724.291 158.082 738.297 147.18 738.297C141.628 738.302 136.168 736.879 131.325 734.165C131.332 735.459 131.695 736.727 132.372 737.83C133.05 738.933 134.017 739.828 135.168 740.42C141.15 743.829 150.541 742.976 160.784 736.577C171.027 730.177 170.609 727.604 176.591 725.481C182.572 723.359 186.415 719.065 186.415 712.231Z" stroke="#263238" stroke-linecap="round" stroke-linejoin="round"/>
<path d="M259.756 708.388C264.872 712.78 269.706 717.49 274.228 722.491C280.66 729.743 281.915 736.963 275.933 740.42C269.951 743.877 260.56 742.976 250.317 736.577C240.074 730.177 240.492 727.604 234.511 725.481C228.529 723.359 224.686 719.049 224.686 712.231C224.686 705.414 246.474 704.545 251.17 704.191C255.865 703.838 259.756 708.388 259.756 708.388Z" fill="white" stroke="#263238" stroke-linecap="round" stroke-linejoin="round"/>
<path d="M224.734 712.231C224.734 712.231 234.382 716.509 239.061 720.4C243.741 724.291 253.067 738.297 263.969 738.297C269.521 738.302 274.981 736.879 279.824 734.165C279.817 735.459 279.455 736.727 278.777 737.83C278.1 738.933 277.133 739.828 275.981 740.42C269.999 743.829 260.609 742.976 250.366 736.577C240.123 730.177 240.541 727.604 234.559 725.481C228.577 723.359 224.734 719.065 224.734 712.231Z" stroke="#263238" stroke-linecap="round" stroke-linejoin="round"/>
<path d="M139.012 465.838C139.012 465.838 141.568 561.916 142.855 576.018C144.141 590.12 147.936 622.135 147.936 623.904C147.936 625.673 150.059 696.505 150.059 696.505L146.215 702.937L147.502 711.91L164.579 715.319C173.117 717.023 184.229 719.596 185.933 717.892C187.638 716.187 188.072 712.762 188.924 708.067C189.776 703.371 191.481 694.817 189.776 687.999C188.072 681.181 191.915 608.564 192.349 606.859C192.783 605.155 202.608 535.014 202.608 535.014C202.608 535.014 209.04 592.677 213.703 610.172C218.366 627.667 216.694 653.732 218.399 663.975C220.103 674.218 223.528 708.822 223.962 711.379C224.396 713.936 225.233 717.811 225.233 717.811C225.233 717.811 246.587 714.82 250.43 713.1C254.326 711.664 258.326 710.525 262.393 709.691C262.393 709.691 263.664 685.346 261.959 675.521C260.717 668.617 260.002 661.629 259.821 654.617C259.821 651.626 261.959 556.834 261.959 556.834L259.821 465.017C259.821 465.017 202.174 470.999 179.967 466.722C157.761 462.445 139.446 459.888 139.446 459.888L139.012 465.838Z" fill="#D7D0FF" stroke="#263238" stroke-linecap="round" stroke-linejoin="round"/>
<path d="M180 466.69C157.793 462.429 139.446 459.888 139.446 459.888L139.012 465.854C139.012 465.854 139.156 471.369 139.398 479.924C149.576 482.77 170.255 487.771 190.242 487.771C211.372 487.771 245.027 481.339 260.174 478.267L259.853 465.001C259.853 465.001 202.206 470.967 180 466.69Z" fill="#263238" stroke="#263238" stroke-linecap="round" stroke-linejoin="round"/>
<path d="M254.177 683.062C254.45 686.005 254.627 687.693 254.627 687.693" stroke="#263238" stroke-linecap="round" stroke-linejoin="round"/>
<path d="M247.632 488.382C247.632 488.382 249.24 570.904 249.24 602.051C249.24 623.599 251.845 656.305 253.453 674.411" stroke="#263238" stroke-linecap="round" stroke-linejoin="round"/>
<path d="M161.202 483.719L165.093 573.252" stroke="#263238" stroke-linecap="round" stroke-linejoin="round"/>
<path d="M164.305 580.247V595.04" stroke="#263238" stroke-linecap="round" stroke-linejoin="round"/>
<path d="M184.55 240.3C182.448 240.311 180.378 240.823 178.513 241.793C176.648 242.763 175.041 244.164 173.825 245.879C171.165 249.388 168.206 252.659 164.981 255.656L126.791 276.158L130.521 421.939L131.92 471.787C131.92 471.787 161.25 481.564 189.197 481.564C217.144 481.564 266.976 470.308 266.976 470.308C266.976 470.308 262.795 276.094 264.194 276.094C265.593 276.094 236.714 251.009 223.673 244.416C210.632 237.823 184.55 240.3 184.55 240.3Z" fill="#D7D0FF" stroke="#263238" stroke-linecap="round" stroke-linejoin="round"/>
<path d="M173.664 257.923C173.664 257.923 188.458 285.179 194.697 297.641C200.936 310.103 212.578 328.032 212.578 328.032L232.05 275.869" stroke="#263238" stroke-linecap="round" stroke-linejoin="round"/>
<path d="M184.598 430.799L183.843 409.043L139.896 406.486C139.896 406.486 140.33 438.518 141.182 440.254" stroke="#263238" stroke-linecap="round" stroke-linejoin="round"/>
<path d="M185.129 446.204L184.92 440.094" stroke="#263238" stroke-linecap="round" stroke-linejoin="round"/>
<path d="M237.228 442.779L235.942 406.92C235.942 406.92 251.314 408.191 264.13 399.652" stroke="#263238" stroke-linecap="round" stroke-linejoin="round"/>
<path d="M171.332 321.471C172.683 325.732 176.8 328.241 180.514 327.051C184.229 325.861 186.11 321.439 184.743 317.178C183.376 312.917 179.276 310.408 175.561 311.598C171.847 312.788 169.966 317.21 171.332 321.471Z" stroke="#263238" stroke-linecap="round" stroke-linejoin="round"/>
<path d="M171.767 246.86C171.767 246.86 166.83 265.835 178.054 317.339" stroke="#263238" stroke-width="2" stroke-linecap="round" stroke-linejoin="round"/>
<path d="M181.511 319.108C181.18 319.775 180.665 320.333 180.026 320.716C179.387 321.099 178.652 321.291 177.908 321.268C177.163 321.246 176.441 321.01 175.827 320.59C175.212 320.169 174.731 319.581 174.441 318.895C174.151 318.209 174.064 317.454 174.19 316.72C174.316 315.986 174.65 315.304 175.152 314.754C175.654 314.204 176.304 313.81 177.023 313.618C177.743 313.427 178.502 313.445 179.212 313.673C180.233 314.093 181.047 314.9 181.478 315.918C181.908 316.935 181.92 318.081 181.511 319.108Z" stroke="#263238" stroke-linecap="round" stroke-linejoin="round"/>
<path d="M262.329 273.36C262.329 273.36 269.308 278.49 269.774 280.355C270.24 282.22 293.991 339.031 293.991 339.031L259.531 344.112L259.998 310.569" fill="#D7D0FF"/>
<path d="M262.329 273.36C262.329 273.36 269.308 278.49 269.774 280.355C270.24 282.22 293.991 339.031 293.991 339.031L259.531 344.112L259.998 310.569" stroke="#263238" stroke-linecap="round" stroke-linejoin="round"/>
<path d="M131.454 274.293C131.454 274.293 123.527 275.225 121.661 281.271C119.796 287.317 106.305 348.807 106.305 348.807L155.67 344.112L151.007 297.995" fill="#D7D0FF"/>
<path d="M131.454 274.293C131.454 274.293 123.527 275.225 121.661 281.271C119.796 287.317 106.305 348.807 106.305 348.807L155.67 344.112L151.007 297.995" stroke="#263238" stroke-linecap="round" stroke-linejoin="round"/>
<path d="M226.808 243.966C226.808 243.966 239.045 250.944 240.251 268.311C241.457 285.677 240.251 290.083 240.251 290.083" stroke="#263238" stroke-width="2" stroke-linecap="round" stroke-linejoin="round"/>
<path d="M245.783 312.322C245.783 312.322 244.689 332.856 242.454 338.789C240.219 344.723 231.375 351.75 224.364 352.876" stroke="#263238" stroke-linecap="round" stroke-linejoin="round"/>
<path d="M229.944 310.103C229.944 310.103 228.963 333.789 228.867 338.195C228.77 342.6 233.208 350.271 239.576 357.619" stroke="#263238" stroke-linecap="round" stroke-linejoin="round"/>
<path d="M241.402 360.199L241.589 360.047C242.465 359.337 242.6 358.051 241.889 357.175L240.988 356.063C240.278 355.187 238.992 355.053 238.116 355.763L237.928 355.915C237.052 356.626 236.918 357.912 237.628 358.788L238.53 359.899C239.24 360.775 240.526 360.909 241.402 360.199Z" fill="#263238"/>
<path d="M221.847 353.626L221.892 353.863C222.102 354.971 223.17 355.699 224.278 355.489L225.684 355.223C226.792 355.013 227.521 353.944 227.311 352.836L227.266 352.599C227.056 351.491 225.987 350.763 224.879 350.973L223.473 351.24C222.365 351.45 221.637 352.518 221.847 353.626Z" fill="#263238"/>
<path d="M246.024 313.882L245.558 296.628C245.514 294.828 244.801 293.109 243.559 291.807C242.316 290.504 240.632 289.712 238.836 289.585C236.929 289.443 235.043 290.061 233.591 291.306C232.138 292.55 231.238 294.319 231.086 296.226L229.638 313.721" stroke="#263238" stroke-width="2" stroke-linecap="round" stroke-linejoin="round"/>
<path d="M286.079 353.471L274.968 351.139L235.845 344.627L180.98 334.175L167.972 328.434C167.972 328.434 155.67 312.354 154.609 310.746C153.548 309.138 139.639 314.75 140.137 316.889C140.636 319.027 142.276 340.398 143.353 341.748C144.431 343.099 156.442 343.083 156.442 343.083C156.442 343.083 213.751 370.74 216.131 371.754C249.208 385.695 265.159 385.566 270.803 386.483C276.447 387.399 280.13 385.116 283.378 381.385C286.626 377.655 286.079 353.471 286.079 353.471Z" fill="#999999" stroke="#263238" stroke-linecap="round" stroke-linejoin="round"/>
<path d="M152.937 310.521C152.937 310.521 146.264 310.794 136.374 317.467C132.692 319.96 130.763 321.745 130.763 322.822C130.973 324.104 131.335 325.356 131.84 326.553C138.251 323.465 144.966 321.051 151.876 319.349" fill="#999999"/>
<path d="M152.937 310.521C152.937 310.521 146.264 310.794 136.374 317.467C132.692 319.96 130.763 321.745 130.763 322.822C130.973 324.104 131.335 325.356 131.84 326.553C138.251 323.465 144.966 321.051 151.876 319.349" stroke="#263238" stroke-linecap="round" stroke-linejoin="round"/>
<path d="M155.606 327.63C155.606 327.63 137.452 332.165 134.509 332.711C131.567 333.258 131.036 330.299 131.036 329.238C131.036 328.177 131.84 326.553 135.04 324.961C138.24 323.369 154.336 319.075 154.336 319.075" fill="#999999"/>
<path d="M155.606 327.63C155.606 327.63 137.452 332.165 134.509 332.711C131.567 333.258 131.036 330.299 131.036 329.238C131.036 328.177 131.84 326.553 135.04 324.961C138.24 323.369 154.336 319.075 154.336 319.075" stroke="#263238" stroke-linecap="round" stroke-linejoin="round"/>
<path d="M157.488 335.911C157.488 335.911 136.374 338.05 134.766 336.715C134.274 336.18 133.901 335.546 133.671 334.856C133.441 334.166 133.36 333.435 133.432 332.711L152.406 328.691" fill="#999999"/>
<path d="M157.488 335.911C157.488 335.911 136.374 338.05 134.766 336.715C134.274 336.18 133.901 335.546 133.671 334.856C133.441 334.166 133.36 333.435 133.432 332.711L152.406 328.691" stroke="#263238" stroke-linecap="round" stroke-linejoin="round"/>
<path d="M151.602 336.972L135.313 337.776C135.313 337.776 136.101 340.188 136.921 340.446C140.78 341.399 144.712 342.028 148.676 342.327C151.275 342.412 153.865 342.681 156.426 343.131" fill="#999999"/>
<path d="M151.602 336.972L135.313 337.776C135.313 337.776 136.101 340.188 136.921 340.446C140.78 341.399 144.712 342.028 148.676 342.327C151.275 342.412 153.865 342.681 156.426 343.131" stroke="#263238" stroke-linecap="round" stroke-linejoin="round"/>
<path d="M116.548 347.875C116.548 347.875 123.993 380.035 125.858 382.35C127.723 384.666 143.096 382.35 158.468 377.687C173.841 373.024 239.045 345.093 239.045 345.093L248.356 346.942C248.356 346.942 244.625 335.3 238.113 334.834C231.6 334.368 155.67 344.112 155.67 344.112L116.548 347.875Z" fill="#999999" stroke="#263238" stroke-linecap="round" stroke-linejoin="round"/>
<path d="M181.704 219.797C181.704 219.797 181.704 220.489 181.704 221.663C181.849 227.789 182.444 247.246 184.003 251.941C185.869 257.521 211.018 304.571 212.947 300.841C214.877 297.11 226.455 246.346 226.455 246.346V226.326C226.455 226.326 220.392 231.439 209.217 231.439C198.041 231.439 181.704 219.797 181.704 219.797Z" fill="#999999" stroke="#263238" stroke-linecap="round" stroke-linejoin="round"/>
<path d="M219.01 247.391C221.617 245.798 224.111 244.025 226.471 242.084V226.326C226.471 226.326 220.409 231.439 209.233 231.439C198.057 231.439 181.704 219.797 181.704 219.797C181.704 219.797 181.704 220.489 181.704 221.663C181.704 223.817 181.865 227.628 182.058 231.874C182.499 232.58 182.993 233.252 183.537 233.884C186.753 237.598 202.158 246.924 205.888 247.857C209.619 248.79 214.813 249.706 219.01 247.391Z" fill="#263238" stroke="#263238" stroke-linecap="round" stroke-linejoin="round"/>
<path d="M237.646 192.783C237.646 192.783 245.091 188.586 245.091 196.514C245.091 204.441 238.113 213.751 238.113 213.751L237.646 192.783Z" fill="#999999" stroke="#263238" stroke-linecap="round" stroke-linejoin="round"/>
<path d="M171.043 193.249C171.043 193.249 160.784 190.451 160.784 199.778C160.784 209.104 170.11 215.134 170.11 215.134H176.542C176.542 215.134 180.273 224.461 183.537 228.175C186.801 231.89 202.158 241.216 205.888 242.149C209.619 243.081 214.732 244.014 218.929 241.682C224.202 238.395 229.061 234.487 233.401 230.04C235.266 227.725 238.531 211.886 238.531 211.886C238.531 211.886 239.463 183.473 237.598 173.696C235.733 163.919 223.625 148.547 206.853 146.682C190.082 144.816 174.243 158.324 171.927 169.033C169.612 179.742 171.043 193.249 171.043 193.249Z" fill="#999999" stroke="#263238" stroke-linecap="round" stroke-linejoin="round"/>
<path d="M201.306 200.711C201.306 200.711 198.09 207.223 203.637 209.088C209.185 210.954 216.212 210.487 217.611 207.689C219.01 204.891 216.678 201.643 216.678 201.643" stroke="#263238" stroke-linecap="round" stroke-linejoin="round"/>
<path d="M195.726 212.352C195.726 212.352 207.368 222.129 223.206 212.819" stroke="#263238" stroke-linecap="round" stroke-linejoin="round"/>
<path d="M202.238 221.196C202.238 221.196 212.031 226.792 218.543 220.264" stroke="#263238" stroke-linecap="round" stroke-linejoin="round"/>
<path d="M196.658 195.115C197.946 195.115 198.99 193.444 198.99 191.384C198.99 189.324 197.946 187.654 196.658 187.654C195.371 187.654 194.327 189.324 194.327 191.384C194.327 193.444 195.371 195.115 196.658 195.115Z" fill="#263238"/>
<path d="M221.808 190.918C221.808 192.976 220.762 194.648 219.476 194.648C218.19 194.648 217.144 193.04 217.144 190.918C217.144 188.795 218.19 187.203 219.476 187.203C220.762 187.203 221.808 188.86 221.808 190.918Z" fill="#263238"/>
<path d="M190.13 186.271C190.13 186.271 192.462 182.54 201.386 183.939" stroke="#263238" stroke-linecap="round" stroke-linejoin="round"/>
<path d="M215.745 184.405C215.745 184.405 219.942 177.877 226.471 184.405" stroke="#263238" stroke-linecap="round" stroke-linejoin="round"/>
<path d="M237.646 173.664C237.041 170.898 235.993 168.248 234.543 165.817C234 168.395 233.811 171.035 233.98 173.664C234.655 177.073 237.051 181.833 237.051 184.212C237.051 186.592 236.698 196.128 238.402 194.777C238.571 194.598 238.707 194.392 238.804 194.166C238.911 187.313 238.524 180.461 237.646 173.664Z" fill="#263238" stroke="#263238" stroke-linecap="round" stroke-linejoin="round"/>
<path d="M214.234 154.368C217.224 154.21 220.2 153.85 223.142 153.291C218.391 149.734 212.792 147.483 206.901 146.762C190.13 144.897 174.291 158.404 171.976 169.113C169.66 179.823 171.043 193.33 171.043 193.33C171.043 193.33 174.741 195.903 176.108 193.185C177.475 190.468 176.108 186.03 177.475 181.27C178.842 176.51 180.868 174.114 181.206 170.368C181.543 166.621 179.163 161.186 180.53 158.115C181.897 155.043 190.403 149.271 195.854 151.313C201.719 153.534 207.966 154.572 214.234 154.368Z" fill="#263238" stroke="#263238" stroke-linecap="round" stroke-linejoin="round"/>
</svg>
