<svg width="1200" height="1395" viewBox="0 0 1200 1395" fill="none" xmlns="http://www.w3.org/2000/svg">
<path d="M449.258 462.411V15.9637C449.258 7.879 455.261 0.793218 463.345 0.793228C514.229 0.793286 569.689 0.793262 622.286 0.79324L734.247 0.793228C742.93 0.793233 750.502 7.28089 750.502 15.9637V462.411C750.502 462.411 728.966 600.35 596.766 600.35C464.565 600.35 449.258 462.411 449.258 462.411Z" fill="#D62626"/>
<path d="M0.34951 945.37V638.48C0.34951 638.48 399.914 638.48 472.721 638.48C575.278 638.48 599.547 731.024 599.547 731.024C599.547 731.024 628.963 638.48 717.762 638.48H1199.41V945.37H750.036V1394.74H451.915V945.37H0.34951Z" fill="#D62626"/>
<circle cx="599.88" cy="739.218" r="434.873" stroke="#D62626" stroke-width="44"/>
</svg>
